<svg xmlns="http://www.w3.org/2000/svg" width="160.957" height="161.438" viewBox="0 0 160.957 161.438">
  <g id="Group_23" data-name="Group 23" transform="translate(0 0)">
    <path id="Path_1" data-name="Path 1" d="M243.055,669.7l-1.418-5.591a72.6,72.6,0,0,0-7.7-2.763l-.179,2.6-.726-2.863c-3.246-.928-5.454-1.336-5.454-1.336s2.982,11.342,9.239,20.014l7.29,1.281-5.663.817a29.373,29.373,0,0,0,2.532,2.684c9.1,8.448,19.238,12.323,22.641,8.657S262.4,679.708,253.3,671.261a38.679,38.679,0,0,0-9.913-6.375Z" transform="translate(-227.576 -533.699)" fill="#f2f2f2"/>
    <path id="Path_2" data-name="Path 2" d="M322.819,617.773l1.676-5.519a72.6,72.6,0,0,0-5.165-6.347l-1.5,2.132.858-2.826c-2.3-2.471-3.979-3.962-3.979-3.962S311.4,612.5,312.278,623.16l5.578,4.864-5.271-2.228a29.374,29.374,0,0,0,.781,3.607c3.424,11.936,10.1,20.493,14.907,19.114s5.931-12.174,2.507-24.109a38.672,38.672,0,0,0-5.191-10.581Z" transform="translate(-293.859 -487.848)" fill="#f2f2f2"/>
    <path id="Path_22" data-name="Path 22" d="M456.212,114.706h-.884V90.482a14.021,14.021,0,0,0-14.021-14.021H389.983a14.021,14.021,0,0,0-14.021,14.021v132.9A14.021,14.021,0,0,0,389.983,237.4h51.324a14.021,14.021,0,0,0,14.021-14.021V131.95h.884Z" transform="translate(-343.897 -76.461)" fill="#e6e6e6"/>
    <path id="Path_23" data-name="Path 23" d="M455.906,93.335h-6.7a4.974,4.974,0,0,1-4.606,6.853H415.2a4.974,4.974,0,0,1-4.606-6.853h-6.257a10.471,10.471,0,0,0-10.471,10.471v132.7a10.471,10.471,0,0,0,10.471,10.471h51.571a10.471,10.471,0,0,0,10.471-10.471h0v-132.7a10.471,10.471,0,0,0-10.47-10.47Z" transform="translate(-357.931 -89.689)" fill="#fff"/>
    <path id="Path_6" data-name="Path 6" d="M512.072,318.794a5.281,5.281,0,0,1,2.644-4.576,5.283,5.283,0,1,0,0,9.151,5.28,5.28,0,0,1-2.643-4.575Z" transform="translate(-446.453 -262.285)" fill="#ccc"/>
    <path id="Path_7" data-name="Path 7" d="M542.809,318.794a5.281,5.281,0,0,1,2.644-4.576,5.283,5.283,0,1,0,0,9.151,5.28,5.28,0,0,1-2.643-4.575Z" transform="translate(-470.549 -262.285)" fill="#ccc"/>
    <circle id="Ellipse_1" data-name="Ellipse 1" cx="5.283" cy="5.283" r="5.283" transform="translate(73.468 51.225)" fill="#6c63ff"/>
    <path id="Path_8" data-name="Path 8" d="M517.154,294.6H486.361a1.107,1.107,0,0,1-1.106-1.106V262.7a1.107,1.107,0,0,1,1.106-1.106h30.793a1.107,1.107,0,0,1,1.106,1.106V293.5a1.107,1.107,0,0,1-1.106,1.106Zm-30.793-32.562a.664.664,0,0,0-.663.663V293.5a.664.664,0,0,0,.663.663h30.793a.664.664,0,0,0,.663-.663V262.7a.664.664,0,0,0-.663-.663Z" transform="translate(-429.572 -221.59)" fill="#ccc"/>
    <rect id="Rectangle_1" data-name="Rectangle 1" width="47.228" height="0.442" transform="translate(47.23 96.616)" fill="#ccc"/>
    <circle id="Ellipse_2" data-name="Ellipse 2" cx="1.491" cy="1.491" r="1.491" transform="translate(47.23 90.871)" fill="#6c63ff"/>
    <rect id="Rectangle_2" data-name="Rectangle 2" width="47.228" height="0.442" transform="translate(47.23 111.53)" fill="#ccc"/>
    <circle id="Ellipse_3" data-name="Ellipse 3" cx="1.491" cy="1.491" r="1.491" transform="translate(47.23 105.785)" fill="#6c63ff"/>
    <path id="Path_58" data-name="Path 58" d="M603.02,645.14H588.095a.974.974,0,0,1-.972-.972v-5.231a.974.974,0,0,1,.972-.972H603.02a.973.973,0,0,1,.972.972v5.231A.973.973,0,0,1,603.02,645.14Z" transform="translate(-509.427 -516.627)" fill="#6c63ff"/>
    <circle id="Ellipse_7" data-name="Ellipse 7" cx="1.491" cy="1.491" r="1.491" transform="translate(52.095 90.871)" fill="#6c63ff"/>
    <circle id="Ellipse_8" data-name="Ellipse 8" cx="1.491" cy="1.491" r="1.491" transform="translate(56.96 90.871)" fill="#6c63ff"/>
    <circle id="Ellipse_9" data-name="Ellipse 9" cx="1.491" cy="1.491" r="1.491" transform="translate(52.095 105.785)" fill="#6c63ff"/>
    <circle id="Ellipse_10" data-name="Ellipse 10" cx="1.491" cy="1.491" r="1.491" transform="translate(56.96 105.785)" fill="#6c63ff"/>
    <path id="Path_88" data-name="Path 88" d="M404.627,821.628H249.475c-.332,0-.6-.118-.6-.263s.269-.263.6-.263H404.627c.332,0,.6.118.6.263S404.959,821.628,404.627,821.628Z" transform="translate(-244.272 -660.19)" fill="#3f3d56"/>
    <path id="Path_59" data-name="Path 59" d="M780.945,542.186a2.171,2.171,0,0,1,.3.17l9.692-4.137.346-2.553,3.873-.024-.229,5.856-12.793,3.383a2.3,2.3,0,0,1-.1.261,2.212,2.212,0,1,1-1.1-2.957Z" transform="translate(-658.922 -436.416)" fill="#ffb8b8"/>
    <path id="Path_60" data-name="Path 60" d="M622.8,697.952h-2.649l-1.26-10.219h3.91Z" transform="translate(-485.15 -539.118)" fill="#ffb8b8"/>
    <path id="Path_61" data-name="Path 61" d="M604.293,731.518H609.4v3.217h-8.326a3.217,3.217,0,0,1,3.217-3.217Z" transform="translate(-471.187 -573.442)" fill="#2f2e41"/>
    <path id="Path_62" data-name="Path 62" d="M666.911,694.666l-2.637.26-2.256-10.046,3.891-.383Z" transform="translate(-518.96 -536.582)" fill="#ffb8b8"/>
    <path id="Path_63" data-name="Path 63" d="M3.217,0H8.326V3.217H0A3.217,3.217,0,0,1,3.217,0Z" transform="translate(140.154 158.092) rotate(-5.625)" fill="#2f2e41"/>
    <circle id="Ellipse_8-2" data-name="Ellipse 8" cx="5.307" cy="5.307" r="5.307" transform="translate(133.077 77.796)" fill="#ffb8b8"/>
    <path id="Path_64" data-name="Path 64" d="M824.46,666.423a.966.966,0,0,1-.954-.8c-1.371-7.612-5.854-32.5-5.961-33.191a.306.306,0,0,1,0-.048V630.53a.322.322,0,0,1,.06-.188l.592-.829a.32.32,0,0,1,.247-.135c3.376-.158,14.432-.622,14.966.045h0c.536.671.347,2.7.3,3.1l0,.042,4.967,31.765a.975.975,0,0,1-.8,1.11l-3.1.511a.977.977,0,0,1-1.086-.668c-.96-3.066-4.177-13.38-5.292-17.371a.108.108,0,0,0-.212.03c.056,3.8.19,13.511.237,16.863l.005.361a.976.976,0,0,1-.884.98l-2.992.272C824.52,666.422,824.49,666.423,824.46,666.423Z" transform="translate(-690.054 -509.657)" fill="#2f2e41"/>
    <path id="Path_99" data-name="Path 99" d="M825.714,493.462a4.437,4.437,0,0,0-1.8,2.592,24.564,24.564,0,0,0-1.055,5.869l-.336,5.964L818.363,523.7c3.606,3.051,5.687,2.358,10.541-.138s5.409.832,5.409.832l.971-13.454,1.387-14.7a6.523,6.523,0,0,0-1.051-1.01,10.731,10.731,0,0,0-9.172-1.944Z" transform="translate(-690.698 -402.964)" fill="#6c63ff"/>
    <path id="Path_65" data-name="Path 65" d="M835.055,553.436a2.27,2.27,0,0,1,.324.152l9.583-4.8.159-2.6,3.953-.273.212,5.924-12.807,4.235a2.268,2.268,0,1,1-1.425-2.643Z" transform="translate(-701.39 -444.473)" fill="#ffb8b8"/>
    <path id="Path_101" data-name="Path 101" d="M884.378,507.373c2.358.832,2.773,9.848,2.773,9.848-2.774-1.526-6.1.971-6.1.971s-.693-2.358-1.526-5.409a5.3,5.3,0,0,1,1.11-4.993A3.776,3.776,0,0,1,884.378,507.373Z" transform="translate(-738.474 -414.032)" fill="#6c63ff"/>
    <path id="Path_102" data-name="Path 102" d="M853.481,435.564c-.661-.529-1.563.433-1.563.433l-.529-4.761a18.9,18.9,0,0,1-5.422-.132c-2.116-.528-2.447,1.918-2.447,1.918a16.976,16.976,0,0,1-.066-2.976c.132-1.19,1.852-2.381,4.893-3.174s4.629,2.645,4.629,2.645C855.092,430.574,854.143,436.093,853.481,435.564Z" transform="translate(-710.338 -351.056)" fill="#2f2e41"/>
  </g>
</svg>
