<svg xmlns="http://www.w3.org/2000/svg" width="13.562" height="24" viewBox="0 0 13.562 24">
  <path id="__TEMP__SVG__" d="M7.312,10.562a11.871,11.871,0,0,1,4.563,2,4.539,4.539,0,0,1,1.687,3.813,4.135,4.135,0,0,1-1.281,3.187,6.506,6.506,0,0,1-3.344,1.563V24h-4V21.125a6.789,6.789,0,0,1-3.469-1.75A4.958,4.958,0,0,1,0,16H2.937q.25,2.813,4,2.813a4.022,4.022,0,0,0,2.75-.75,2.2,2.2,0,0,0,.813-1.625,2.531,2.531,0,0,0-.844-1.875A7.132,7.132,0,0,0,6.5,13.187q-6.25-1.5-6.25-5.5A4.166,4.166,0,0,1,1.563,4.593,6.689,6.689,0,0,1,4.937,2.875V0h4V2.937a5.515,5.515,0,0,1,3.094,1.875A5.276,5.276,0,0,1,13.187,8H10.25q-.125-2.813-3.313-2.813a4.518,4.518,0,0,0-2.656.687,2.123,2.123,0,0,0-.969,1.813,1.941,1.941,0,0,0,.875,1.594,10.066,10.066,0,0,0,3.125,1.281Z" fill="#fff"/>
</svg>
