<svg id="__TEMP__SVG__" xmlns="http://www.w3.org/2000/svg" width="20" height="20" viewBox="0 0 20 20">
  <path id="Path_12323" data-name="Path 12323" d="M20,9.99A10,10,0,1,0,3.54,17.6c.02.02.04.02.04.04.18.14.36.28.56.42a2.673,2.673,0,0,1,.28.219,9.983,9.983,0,0,0,11.2,0c.1-.059.178-.138.278-.2.18-.139.38-.279.56-.419.02-.02.04-.02.04-.04A10.169,10.169,0,0,0,20,9.989ZM10,18.741a8.679,8.679,0,0,1-5.02-1.6,4.078,4.078,0,0,1,.1-.479,5.213,5.213,0,0,1,.52-1.239,4.4,4.4,0,0,1,.8-1.02,5.615,5.615,0,0,1,1.02-.8,5.048,5.048,0,0,1,1.22-.5,5.316,5.316,0,0,1,5.02,1.279A5.007,5.007,0,0,1,14.74,16a5.314,5.314,0,0,1,.3,1.139,8.788,8.788,0,0,1-5.04,1.6ZM6.94,9.491a3.278,3.278,0,0,1,0-2.559A3.411,3.411,0,0,1,8.72,5.154,3.119,3.119,0,0,1,10,4.894a3.054,3.054,0,0,1,1.28.26,3.411,3.411,0,0,1,1.78,1.778,3.118,3.118,0,0,1,.26,1.279,3.045,3.045,0,0,1-.26,1.279,3.408,3.408,0,0,1-1.78,1.779,3.394,3.394,0,0,1-2.58,0,3.55,3.55,0,0,1-1.06-.719,3.157,3.157,0,0,1-.7-1.06Zm9.28,6.632c0-.04-.02-.06-.02-.1a6.525,6.525,0,0,0-.86-1.757,6.1,6.1,0,0,0-1.36-1.419,6.509,6.509,0,0,0-1.3-.76,3.525,3.525,0,0,0,.58-.479,5.25,5.25,0,0,0,.78-.98,4.53,4.53,0,0,0,.66-2.417,4.638,4.638,0,0,0-.36-1.838,4.749,4.749,0,0,0-1.02-1.5,4.806,4.806,0,0,0-1.5-1,4.889,4.889,0,0,0-3.68,0,4.539,4.539,0,0,0-1.5,1.019,4.8,4.8,0,0,0-1,1.5,4.638,4.638,0,0,0-.36,1.838A4.349,4.349,0,0,0,5.46,9.49a4.6,4.6,0,0,0,.5,1.159,4.545,4.545,0,0,0,.78.98,3.5,3.5,0,0,0,.6.479,6.4,6.4,0,0,0-1.3.78,6.929,6.929,0,0,0-1.36,1.4,6.249,6.249,0,0,0-.86,1.757.217.217,0,0,0-.02.1A8.747,8.747,0,1,1,18.76,9.99a8.7,8.7,0,0,1-2.54,6.134Z" fill="#8a8a8e"/>
</svg>
