<svg xmlns="http://www.w3.org/2000/svg" width="21.666" height="20" viewBox="0 0 21.666 20">
  <path id="heart-empty" d="M15.031,1.385a7.324,7.324,0,0,0-2.643.529l-.04.017-.04.02A6.632,6.632,0,0,0,10.8,3.006a6.759,6.759,0,0,0-8.908.131l-.026.024-.024.025C-.473,5.6-.418,9.321.968,12.259l.012.023.012.024c1.632,3.022,4.68,5.591,7.458,7.7l.007.006.006,0c.179.131.486.4.841.669a3.137,3.137,0,0,0,1.341.671l.131.025.132-.011a2.374,2.374,0,0,0,1.261-.535c.4-.255.852-.578,1.311-.931.906-.7,1.844-1.5,2.462-2.073l.029-.025,0,0a22.689,22.689,0,0,0,3.682-3.9h0l.006-.008a9.481,9.481,0,0,0,1.571-8.573l-.018-.055-.024-.052A6.645,6.645,0,0,0,15.031,1.385Zm.031,1.905a4.623,4.623,0,0,1,4.358,2.693,7.54,7.54,0,0,1-1.309,6.777l0,0,0,0a20.909,20.909,0,0,1-3.409,3.6l-.016.014-.016.014c-.556.518-1.5,1.324-2.357,1.985-.43.33-.842.626-1.162.828a2.237,2.237,0,0,1-.329.167,3,3,0,0,1-.354-.227c-.262-.2-.54-.448-.844-.672L9.6,18.465c-2.7-2.05-5.535-4.54-6.9-7.049-1.109-2.368-1.06-5.2.506-6.868a4.811,4.811,0,0,1,6.87.461l.769.945.743-.965a4.6,4.6,0,0,1,1.558-1.3,5.617,5.617,0,0,1,1.915-.4Z" transform="translate(0 -1.384)" fill="#8a8a8e"/>
</svg>
