<svg xmlns="http://www.w3.org/2000/svg" width="14.16" height="20" viewBox="0 0 14.16 20">
  <path id="__TEMP__SVG__" d="M18.614,0a1.951,1.951,0,0,0-1.923,1.99c0,1.044-.007,1.957-.007,1.957H14.753a.608.608,0,0,0-.106.01H14.11V5.833h9.009V3.956h-.537a.667.667,0,0,0-.106-.01H20.544s.022-.827.022-1.951A2.008,2.008,0,0,0,18.614,0Zm-7.08,1.9V20h14.16V1.9H21.208V3.214H24.4V18.687H12.831V3.214H16.02V1.9H11.534Zm7.08.024a.642.642,0,1,1-.643.641A.641.641,0,0,1,18.614,1.927ZM14.11,7.1v.642h.643V7.1Zm1.931.012v.642h7.078V7.117ZM14.11,9.526v.642h.643V9.526Zm1.931.012v.643h7.078V9.538Zm-1.931,2.41v.642h.643v-.642Zm1.931.013V12.6h7.078v-.642ZM14.11,14.371v.642h.643v-.642Zm1.931.013v.642h7.078v-.642ZM14.11,16.793v.642h.643v-.642Zm1.931.013v.642h7.078v-.642Z" transform="translate(-11.534)" fill="#8a8a8e"/>
</svg>
