<svg xmlns="http://www.w3.org/2000/svg" width="20" height="19.786" viewBox="0 0 20 19.786">
  <g id="__TEMP__SVG__" transform="translate(-10.286 -6.646)">
    <path id="Path_12" data-name="Path 12" d="M5.643,79h20v1.429h-20Z" transform="translate(4.643 -54)" fill="#8a8a8e"/>
    <path id="Path_13" data-name="Path 13" d="M28.536,12.395a.75.75,0,0,0,.75-.75V9.395a.75.75,0,0,0-.5-.7l-8.25-3a.75.75,0,0,0-.51,0l-8.25,3a.75.75,0,0,0-.495.7v2.25a.75.75,0,0,0,.75.75h.75v9.75h-1.5v1.5h18v-1.5h-1.5v-9.75ZM12.786,9.92l7.5-2.73,7.5,2.73v.975h-15Zm9,12.225h-3v-9.75h3Zm-7.5-9.75h3v9.75h-3Zm12,9.75h-3v-9.75h3Z" transform="translate(0 1)" fill="#8a8a8e"/>
  </g>
</svg>
