<svg xmlns="http://www.w3.org/2000/svg" width="20" height="20" viewBox="0 0 20 20">
  <g id="__TEMP__SVG__" transform="translate(-7.898 -7.897)">
    <path id="Path_9" data-name="Path 9" d="M8.9,18.9h1v7a2,2,0,0,0,2,2h12a2,2,0,0,0,2-2v-7h1A1,1,0,0,0,27.6,17.19l-9-9a1,1,0,0,0-1.414,0l-9,9A1,1,0,0,0,8.9,18.9Zm9-8.586,6,6V25.9h-12V16.312Z" fill="#8a8a8e"/>
    <path id="Path_10" data-name="Path 10" d="M31.285,57.05a3.751,3.751,0,0,0,3.441-2.564l-1.321-.431a2.2,2.2,0,0,1-4.241,0l-1.32.436A3.753,3.753,0,0,0,31.285,57.05Z" transform="translate(-13.387 -33.686)" fill="#8a8a8e"/>
  </g>
</svg>
