<svg xmlns="http://www.w3.org/2000/svg" width="160.767" height="106.841" viewBox="0 0 160.767 106.841">
  <g id="Group_22" data-name="Group 22" transform="translate(0 0)">
    <path id="Path_36" data-name="Path 36" d="M433.445,415.931c5.51-9.692,16.019-17.134,27.144-16.417a51.365,51.365,0,0,0-13.509,32.576c-.183,4.672.1,9.887-3,13.386a11.482,11.482,0,0,1-7.781,3.452,34.1,34.1,0,0,1-8.663-.825l-.694.213C426.676,437.171,427.936,425.623,433.445,415.931Z" transform="translate(-375.778 -354.443)" fill="#f0f0f0"/>
    <path id="Path_37" data-name="Path 37" d="M460.581,398.721a43.9,43.9,0,0,0-19.548,18.642,18.9,18.9,0,0,0-2.069,5.55,10.843,10.843,0,0,0,.564,5.679,22.44,22.44,0,0,1,1.62,5.185,6.64,6.64,0,0,1-1.777,5.131,17.251,17.251,0,0,1-5.715,3.8c-2.305,1.092-4.717,2.19-6.35,4.228-.2.247-.569-.074-.372-.321,2.841-3.546,7.7-4.213,11.076-7.07a6.724,6.724,0,0,0,2.68-5.275,17.411,17.411,0,0,0-1.545-5.3,11.571,11.571,0,0,1-.759-5.532,17.478,17.478,0,0,1,1.848-5.61,42.594,42.594,0,0,1,7.833-10.764,44.682,44.682,0,0,1,12.354-8.815C460.706,398.12,460.863,398.585,460.581,398.721Z" transform="translate(-375.752 -353.417)" fill="#fff"/>
    <path id="Path_38" data-name="Path 38" d="M504.823,454.041a6.587,6.587,0,0,1-1.988-8.294c.144-.282.588-.071.444.211a6.1,6.1,0,0,0,1.865,7.712C505.4,453.854,505.078,454.225,504.823,454.041Z" transform="translate(-438.282 -392.791)" fill="#fff"/>
    <path id="Path_39" data-name="Path 39" d="M498.154,550.054a12.7,12.7,0,0,0,8.038-4.582c.2-.246.57.075.372.321a13.205,13.205,0,0,1-8.374,4.751C497.876,550.589,497.842,550.1,498.154,550.054Z" transform="translate(-434.802 -475.699)" fill="#fff"/>
    <path id="Path_40" data-name="Path 40" d="M572.925,432.394a3.728,3.728,0,0,0,3.332,1.188c.313-.049.347.441.036.49a4.178,4.178,0,0,1-3.689-1.306.254.254,0,0,1-.025-.346A.247.247,0,0,1,572.925,432.394Z" transform="translate(-496.783 -381.756)" fill="#fff"/>
    <path id="Path_41" data-name="Path 41" d="M480.616,550.63c-.194.036-.389.072-.585.112a49.093,49.093,0,0,0-7.677,2.122c-.194.068-.39.139-.582.212a51.766,51.766,0,0,0-16.28,9.908,50.28,50.28,0,0,0-5.273,5.526c-2.23,2.725-4.432,5.857-7.346,7.634a8.631,8.631,0,0,1-.938.509l-16.789-6.964c-.03-.035-.062-.066-.093-.1l-.683-.247c.076-.108.158-.218.234-.325.044-.063.092-.124.136-.186.03-.041.061-.082.086-.121.01-.014.02-.027.029-.037.025-.039.053-.072.076-.108q.679-.924,1.374-1.841s0,0,.007-.006a73.918,73.918,0,0,1,12-12.7c.135-.11.272-.224.415-.331a47.969,47.969,0,0,1,6.484-4.386,42.384,42.384,0,0,1,3.846-1.9,35.266,35.266,0,0,1,10.684-2.725c7.34-.682,14.817.992,20.447,5.6C480.333,550.391,480.474,550.508,480.616,550.63Z" transform="translate(-373.669 -474.984)" fill="#f0f0f0"/>
    <path id="Path_42" data-name="Path 42" d="M481.638,575.274a43.9,43.9,0,0,0-26.832,3.115,18.906,18.906,0,0,0-4.994,3.186,10.843,10.843,0,0,0-2.969,4.874,22.444,22.444,0,0,1-1.828,5.116,6.639,6.639,0,0,1-4.508,3.027,17.251,17.251,0,0,1-6.853-.405c-2.5-.516-5.085-1.092-7.616-.447-.307.078-.41-.4-.1-.48,4.4-1.121,8.688,1.275,13.1,1.024a6.724,6.724,0,0,0,5.316-2.6,17.411,17.411,0,0,0,1.955-5.158,11.571,11.571,0,0,1,2.725-4.874,17.48,17.48,0,0,1,4.853-3.366,42.592,42.592,0,0,1,12.735-3.879,44.681,44.681,0,0,1,15.171.4C482.1,574.869,481.945,575.336,481.638,575.274Z" transform="translate(-374.817 -499.431)" fill="#fff"/>
    <path id="Path_43" data-name="Path 43" d="M611.843,553.43a6.587,6.587,0,0,1,3.407-7.819c.284-.138.512.3.228.436a6.1,6.1,0,0,0-3.154,7.28C612.416,553.629,611.935,553.73,611.843,553.43Z" transform="translate(-529.223 -475.865)" fill="#fff"/>
    <path id="Path_44" data-name="Path 44" d="M549.593,642.391a12.7,12.7,0,0,0,9.177,1.181c.307-.077.41.4.1.48a13.206,13.206,0,0,1-9.547-1.249C549.049,642.651,549.317,642.239,549.593,642.391Z" transform="translate(-477.41 -556.283)" fill="#fff"/>
    <path id="Path_45" data-name="Path 45" d="M694.014,575.123a3.729,3.729,0,0,0,1.945,2.955c.279.149.011.561-.266.413a4.178,4.178,0,0,1-2.16-3.264.254.254,0,0,1,.188-.292.247.247,0,0,1,.292.188Z" transform="translate(-597.339 -500.251)" fill="#fff"/>
    <path id="Path_46" data-name="Path 46" d="M199.348,505.014c-2.351-11.369-5.29-15.159-5.29-15.159l-1.123-.871-1.35-1.049.007-.135-.32-.109-.075-.058-.123-.095-.02.021-.042.043-6.11-2.077-7.752-2.633-3.589-4.666a6.209,6.209,0,0,0-4.967-2.423l-11.464.085a6.209,6.209,0,0,0-4.176,1.656l-7.535,6.989-11.741,5.607-.02-.02-.123.088-1.814.867.075.39-1.123.81s-2.939,3.527-5.29,14.105c-.6,2.692-.893,8.466-1,15.581a2.716,2.716,0,0,0,2.715,2.756h70.537a2.716,2.716,0,0,0,2.715-2.753C200.246,514.225,199.951,507.933,199.348,505.014Z" transform="translate(-124.382 -417.88)" fill="#3f3d56"/>
    <path id="Path_47" data-name="Path 47" d="M570.317,191.732a9.2,9.2,0,0,0,0,18.4h68.557a9.2,9.2,0,1,0,0-18.4Z" transform="translate(-487.306 -181.817)" fill="#e5e5e5"/>
    <path id="Path_48" data-name="Path 48" d="M579.471,202.747a7.338,7.338,0,0,0,0,14.675h68.557a7.338,7.338,0,0,0,0-14.675Z" transform="translate(-496.46 -190.971)" fill="#fff"/>
    <circle id="ab6171fa-7d69-4734-b81c-8dff60f9761b" cx="15.019" cy="15.019" r="15.019" transform="translate(25.26 23.582)" fill="#9e616a"/>
    <path id="Path_49" data-name="Path 49" d="M339.029,443.882l-.192-.425c.025,0,.049,0,.074,0Z" transform="translate(-302.592 -390.999)" fill="#2f2e41"/>
    <path id="Path_50" data-name="Path 50" d="M242.434,241.637a4.18,4.18,0,0,1,2.619-1.132c.971.031,1.956.908,1.755,1.859A15.434,15.434,0,0,1,265.38,235.4c2.414.852,4.781,2.555,5.335,5.054a4.551,4.551,0,0,0,.573,1.866,2.13,2.13,0,0,0,2.267.574l.024-.007a.71.71,0,0,1,.857,1l-.683,1.274a5.473,5.473,0,0,0,2.607-.055.709.709,0,0,1,.753,1.1,12.358,12.358,0,0,1-9.854,5.065c-2.729-.017-5.486-.957-8.141-.33a7.072,7.072,0,0,0-4.757,9.928,2.306,2.306,0,0,0-3.228.194,4.427,4.427,0,0,0-.966,3.387,15.716,15.716,0,0,0,1.613,5.275,15.77,15.77,0,0,1-9.348-28.092Z" transform="translate(-217.591 -217.373)" fill="#2f2e41"/>
    <path id="Path_51" data-name="Path 51" d="M87.464,495.253l4.212,22.919,2.528.22Z" transform="translate(-72.682 -411.551)" opacity="0.2"/>
    <path id="Path_52" data-name="Path 52" d="M328.868,485.026l-4.212,24.631-2.528.237Z" transform="translate(-267.685 -403.052)" opacity="0.2"/>
    <path id="Path_53" data-name="Path 53" d="M251,149.621a1.5,1.5,0,0,1-2-.879,1.521,1.521,0,0,1,.8-2.074A1.6,1.6,0,0,1,251,149.621Zm-1.547-4.645-.642.268a.693.693,0,0,1-.88-.323l-.032-.062a5.617,5.617,0,0,1-.234-4.5c.5-1.559.7-2.656.288-3.65a1.942,1.942,0,0,0-2.81-.987,2.388,2.388,0,0,0-1.067.6.915.915,0,0,1-.663.269.885.885,0,0,1-.633-.278.9.9,0,0,1-.006-1.233,7.02,7.02,0,0,1,2.374-1.63c2.807-1.172,4.22.558,4.866,2.107.632,1.515.277,2.92-.295,4.74a4.7,4.7,0,0,0,.093,3.747.69.69,0,0,1-.359.928Z" transform="translate(-222.569 -133.069)" fill="#6c63ff"/>
    <path id="Path_54" data-name="Path 54" d="M636.467,268.891h-13.64a.329.329,0,1,1,0-.657h13.64a.329.329,0,1,1,0,.657Z" transform="translate(-538.312 -245.39)" fill="#6c63ff"/>
    <path id="Path_55" data-name="Path 55" d="M738.848,269.539h-13.64a.329.329,0,0,1,0-.657h13.64a.329.329,0,1,1,0,.657Z" transform="translate(-623.39 -245.928)" fill="#6c63ff"/>
    <path id="Path_56" data-name="Path 56" d="M841.23,270.187H827.59a.329.329,0,0,1,0-.657h13.64a.329.329,0,1,1,0,.657Z" transform="translate(-708.468 -246.467)" fill="#6c63ff"/>
    <path id="Path_57" data-name="Path 57" d="M943.611,270.835h-13.64a.329.329,0,0,1,0-.657h13.64a.329.329,0,0,1,0,.657Z" transform="translate(-793.547 -247.005)" fill="#6c63ff"/>
    <circle id="Ellipse_4" data-name="Ellipse 4" cx="2.535" cy="2.535" r="2.535" transform="translate(88.77 15.407)" fill="#6c63ff"/>
    <circle id="Ellipse_5" data-name="Ellipse 5" cx="2.535" cy="2.535" r="2.535" transform="translate(106.177 15.407)" fill="#6c63ff"/>
    <circle id="Ellipse_6" data-name="Ellipse 6" cx="2.535" cy="2.535" r="2.535" transform="translate(123.585 15.407)" fill="#6c63ff"/>
    <circle id="Ellipse_7" data-name="Ellipse 7" cx="2.535" cy="2.535" r="2.535" transform="translate(140.993 15.407)" fill="#6c63ff"/>
  </g>
</svg>
