<svg xmlns="http://www.w3.org/2000/svg" width="29.435" height="28.262" viewBox="0 0 29.435 28.262">
  <g id="__TEMP__SVG__" transform="translate(1.031 17.673) rotate(-60)">
    <path id="Path_12324" data-name="Path 12324" d="M2.5,0H19.13a2.5,2.5,0,0,1,2.5,2.5v9.981a2.5,2.5,0,0,1-2.5,2.5H2.5a2.5,2.5,0,0,1-2.5-2.5V2.5A2.5,2.5,0,0,1,2.5,0Z" transform="translate(0 4.158)" fill="none" stroke="#fff" stroke-linejoin="round" stroke-width="1.5"/>
    <path id="Path_12325" data-name="Path 12325" d="M18.889,4.158V2.6A2.6,2.6,0,0,0,15.8.046L2.112,2.383A2.6,2.6,0,0,0,0,4.938V7.485" transform="translate(0 0)" fill="none" stroke="#fff" stroke-linejoin="round" stroke-width="1.5"/>
    <path id="Path_12326" data-name="Path 12326" d="M1,2A1,1,0,1,1,2,1,1,1,0,0,1,1,2Z" transform="translate(14.971 9.98)" fill="#fff"/>
  </g>
</svg>
