<svg xmlns="http://www.w3.org/2000/svg" width="22.421" height="24" viewBox="0 0 22.421 24">
  <path id="__TEMP__SVG__" d="M13.515,0A11.857,11.857,0,0,0,5.074,3.515a12.046,12.046,0,0,0,0,16.969A11.9,11.9,0,0,0,16.087,23.72V21.186a9.524,9.524,0,0,1-2.565.353,9.406,9.406,0,0,1-6.71-2.795,9.57,9.57,0,0,1,0-13.488,9.4,9.4,0,0,1,6.707-2.795A8.093,8.093,0,0,1,20.221,15L18.13,9.836c-.306-.755-.67-1.9-2.059-1.9s-1.75,1.14-2.054,1.9l-1.922,4.771L9.517,8.063H6.807l3.213,7.95c.326.807.68,1.9,2.077,1.9s1.747-1.09,2.072-1.9l1.9-4.727,1.914,4.727c.387.973.8,1.894,2.07,1.894a2.329,2.329,0,0,0,1.788-.959A10.556,10.556,0,0,0,13.515,0Z" transform="translate(-1.58 0)" fill="#fff"/>
</svg>
